<svg width="223" height="169" viewBox="0 0 223 169" fill="none" xmlns="http://www.w3.org/2000/svg">
<g clip-path="url(#clip0_3_23)">
<path d="M183.98 77.36C205.342 77.36 222.66 60.0424 222.66 38.68C222.66 17.3176 205.342 0 183.98 0C162.618 0 145.3 17.3176 145.3 38.68C145.3 60.0424 162.618 77.36 183.98 77.36Z" fill="#1E1D19"/>
<path d="M41.74 0.0500114C19.43 -1.10999 0.98 16.63 0.98 38.68L0 166.45C0 167.52 0.88 168.37 1.95 168.31L17.41 167.47C18.4 167.42 19.17 166.59 19.16 165.59L18.14 105.92L16.78 73.39C16.68 71.88 18.32 70.93 19.61 71.72C25.46 75.29 32.31 77.36 39.66 77.36C61.71 77.36 79.46 58.9 78.28 36.6C77.26 17.07 61.27 1.08001 41.74 0.0500114Z" fill="#1E1D19"/>
<path d="M39.91 95.63L55.15 94.5C56.12 94.43 56.97 95.15 57.07 96.12C58.03 105.8 65.05 152.15 111.48 150.35C157.78 148.56 164.95 105.31 165.95 96.09C166.05 95.13 166.91 94.43 167.87 94.5L182.79 95.63C183.81 95.71 184.55 96.6 184.45 97.61C183.25 108.94 174.02 168.69 113.24 168.31C48.98 167.91 39.47 108.88 38.24 97.61C38.13 96.6 38.88 95.7 39.9 95.63H39.91Z" fill="#1E1D19"/>
</g>
<defs>
<clipPath id="clip0_3_23">
<rect width="222.66" height="168.31" fill="white"/>
</clipPath>
</defs>
</svg>
