<svg width="527" height="170" viewBox="0 0 527 170" fill="none" xmlns="http://www.w3.org/2000/svg">
<g clip-path="url(#clip0_3_17)">
<path d="M141.77 24.13C142.68 23.85 143.22 22.93 143.04 22C141.96 16.54 137.28 -0.469972 120.88 2.82368e-05C111.23 0.280028 105.49 4.58003 102.14 8.85003C101.16 10.1 99.1799 9.64003 98.8699 8.08003L98.1599 4.49003C97.9899 3.66003 97.2799 3.04003 96.4299 3.00003L86.1799 2.51003C85.1399 2.46003 84.2599 3.28003 84.2399 4.33003L83.3799 58.62L83.8099 73.47C83.8399 74.45 84.6299 75.24 85.6099 75.26L99.0199 75.58C100.07 75.6 100.93 74.75 100.91 73.7L100.22 33.11C100.22 32.98 100.22 32.85 100.25 32.72C101.71 25.01 105.52 13 115.11 13.27C125.7 13.57 128.1 21.79 128.64 25.85C128.79 26.99 129.92 27.74 131.02 27.4L141.74 24.11L141.77 24.13Z" fill="#1E1D19"/>
<path d="M183.98 77.72C205.342 77.72 222.66 60.4024 222.66 39.04C222.66 17.6776 205.342 0.359985 183.98 0.359985C162.618 0.359985 145.3 17.6776 145.3 39.04C145.3 60.4024 162.618 77.72 183.98 77.72Z" fill="#1E1D19"/>
<path d="M226.73 52.27L238.56 50.12C239.54 49.94 240.47 50.56 240.69 51.53C241.65 55.8 245.45 66.38 259.61 65.47C277.32 64.33 279.47 57.38 279.34 55.73C279.21 54.08 278.71 47.76 259.23 44.47C239.75 41.18 227.99 35.49 228.12 22.97C228.25 10.48 236.8 2.9 257.68 0.02C257.78 0.01 257.89 0 257.99 0C277.01 0.05 285.03 8.81 287.76 18.83C288.02 19.79 287.52 20.79 286.57 21.11L276.84 24.38C275.92 24.69 274.89 24.24 274.54 23.33C273.42 20.42 269.82 14.49 258.79 12.38C258.65 12.35 258.5 12.34 258.36 12.34C246.3 12.41 243.88 18.29 243.78 21.37C243.78 21.51 243.78 21.64 243.81 21.77C244.4 25.39 247.57 29.57 261.11 31.56C270.23 32.9 280.78 35.81 287.9 41.73C288.03 41.84 288.14 41.96 288.24 42.09C291.12 45.95 293.36 49.63 293.36 55.34C293.36 72.79 276.16 77.7 260.48 77.71C245.33 77.72 227 69.7 225.2 54.22C225.09 53.28 225.78 52.42 226.72 52.25L226.73 52.27Z" fill="#1E1D19"/>
<path d="M450.01 44.31C449.1 44.21 448.25 44.79 448.03 45.68C447.18 49.13 443.67 57.49 429.21 62.22C413.84 67.25 405.34 60.25 401.72 55.8C400.74 54.59 401.66 52.79 403.22 52.83C428.67 53.43 448.5 35.11 452.3 31.34C452.72 30.93 452.92 30.32 452.83 29.74C448.68 1.79998 422.28 -3.06002 406.03 2.37998C389.6 7.88998 376.44 28.83 383.26 50.15C390.08 71.47 415.07 81.29 435.59 74.46C452.13 68.95 458.97 53.53 460.99 47.76C461.39 46.63 460.63 45.43 459.44 45.31L450.01 44.32V44.31ZM410.54 15.34C425.68 10.23 434.45 18.95 437.4 25.47C437.75 26.23 437.56 27.12 436.92 27.66C433.11 30.86 418.67 41.61 396.83 41.52C395.87 41.52 395.05 40.75 394.99 39.79C394.68 34.85 395.19 20.52 410.54 15.34Z" fill="#1E1D19"/>
<path d="M526.59 22.09C525.72 11.13 517.67 2.78002 503.68 1.05002C503.58 1.04002 503.48 1.03002 503.39 1.03002C496.08 0.850018 489.77 5.45002 485.29 10.08C484.23 11.18 482.38 10.58 482.15 9.07002L481.44 4.36002C481.3 3.46002 480.53 2.79002 479.61 2.79002H469.36C468.34 2.79002 467.51 3.62002 467.51 4.64002V73.56C467.51 74.55 468.28 75.36 469.27 75.41L481.8 76.02C482.78 76.07 483.63 75.34 483.73 74.36L485.43 57.51C485.43 57.43 485.44 57.35 485.43 57.26L484.43 26.6C484.43 26.35 484.46 26.1 484.55 25.86C488.21 15.92 494.49 13.61 501.64 13.61C510.95 13.61 512.11 22.18 512.07 26.81C512.06 28.14 513.42 29.03 514.64 28.51L525.46 23.91C526.18 23.6 526.65 22.87 526.59 22.09Z" fill="#1E1D19"/>
<path d="M41.74 0.420028C19.43 -0.749972 0.98 16.99 0.98 39.04L0 166.81C0 167.88 0.88 168.73 1.95 168.67L17.41 167.83C18.4 167.78 19.17 166.95 19.16 165.95L18.14 106.28L16.78 73.75C16.68 72.24 18.32 71.29 19.61 72.08C25.46 75.65 32.31 77.72 39.66 77.72C61.71 77.72 79.46 59.26 78.28 36.96C77.26 17.43 61.27 1.44003 41.74 0.420028Z" fill="#1E1D19"/>
<path d="M340.56 0.420028C318.25 -0.749972 299.8 16.99 299.8 39.04C299.8 39.52 299.85 39.98 299.87 40.45L299.8 40.36L298.32 123.65L299.03 167.33C299.05 168.36 299.91 169.18 300.94 169.15L315.2 168.67C316.2 168.64 316.99 167.82 316.99 166.82L316.85 74.4C316.85 72.99 318.36 72.1 319.59 72.8C325.18 75.93 331.62 77.72 338.49 77.72C360.54 77.72 378.28 59.27 377.11 36.96C376.09 17.44 360.09 1.44003 340.57 0.420028H340.56Z" fill="#1E1D19"/>
<path d="M39.91 95.99L55.15 94.86C56.12 94.79 56.97 95.51 57.07 96.48C58.03 106.16 65.05 152.51 111.48 150.71C157.78 148.92 164.95 105.67 165.95 96.45C166.05 95.49 166.91 94.79 167.87 94.86L182.79 95.99C183.81 96.07 184.55 96.96 184.45 97.97C183.25 109.3 174.02 169.05 113.24 168.67C48.98 168.27 39.47 109.24 38.24 97.97C38.13 96.96 38.88 96.06 39.9 95.99H39.91Z" fill="#1E1D19"/>
</g>
<defs>
<clipPath id="clip0_3_17">
<rect width="526.59" height="169.16" fill="white"/>
</clipPath>
</defs>
</svg>
